<svg xmlns="http://www.w3.org/2000/svg" viewBox="0 0 1024 1024" width="1024" height="1024">
  <defs>
    <radialGradient id="glow" cx="50%" cy="30%" r="70%">
      <stop offset="0%" stop-color="#a4cc86" stop-opacity="0.10"/>
      <stop offset="100%" stop-color="#a4cc86" stop-opacity="0"/>
    </radialGradient>
    <linearGradient id="spec" x1="0" y1="0" x2="1" y2="0">
      <stop offset="0%" stop-color="#d9b83a"/>
      <stop offset="50%" stop-color="#9aa578"/>
      <stop offset="100%" stop-color="#7679b6"/>
    </linearGradient>
  </defs>
  <rect width="1024" height="1024" fill="#0b0d0a"/>
  <rect width="1024" height="1024" fill="url(#glow)"/>
  <g transform="translate(512 470) scale(27) translate(-12 -12)" fill="none" stroke="#f2f5ec" stroke-width="1.25" stroke-linecap="round" stroke-linejoin="round">
    <path d="M11 20A7 7 0 0 1 9.8 6.1C15.5 5 17 4.48 19 2c1 2 2 4.18 2 8 0 5.5-4.78 10-10 10z"/>
    <path d="M2 21c0-3 1.85-5.36 5.08-6C9.5 14.52 12 13 13 12"/>
  </g>
  <rect x="292" y="812" width="440" height="26" rx="13" fill="url(#spec)"/>
  <circle cx="660" cy="825" r="30" fill="#f2f5ec"/>
</svg>
